<?xml version="1.0" encoding="UTF-8"?>
<!DOCTYPE svg PUBLIC "-//W3C//DTD SVG 1.1//EN" "http://www.w3.org/Graphics/SVG/1.1/DTD/svg11.dtd">
<!-- Creator: CorelDRAW 2021 (64-Bit) -->
<svg xmlns="http://www.w3.org/2000/svg" xml:space="preserve" width="310.505mm" height="93.842mm" version="1.1" style="shape-rendering:geometricPrecision; text-rendering:geometricPrecision; image-rendering:optimizeQuality; fill-rule:evenodd; clip-rule:evenodd"
viewBox="0 0 31050.46 9384.2"
 xmlns:xlink="http://www.w3.org/1999/xlink"
 xmlns:xodm="http://www.corel.com/coreldraw/odm/2003">
 <defs>
  <style type="text/css">
   <![CDATA[
    .fil1 {fill:black}
    .fil4 {fill:black;fill-rule:nonzero}
    .fil2 {fill:#FEFEFE;fill-rule:nonzero}
    .fil0 {fill:url(#id0)}
    .fil3 {fill:url(#id1)}
   ]]>
  </style>
  <linearGradient id="id0" gradientUnits="userSpaceOnUse" x1="7097.59" y1="6470.08" x2="6780.81" y2="1805.36">
   <stop offset="0" style="stop-opacity:1; stop-color:#9E0000"/>
   <stop offset="1" style="stop-opacity:1; stop-color:red"/>
  </linearGradient>
  <linearGradient id="id1" gradientUnits="userSpaceOnUse" xlink:href="#id0" x1="23588.58" y1="4768.65" x2="23414.46" y2="4056.47">
  </linearGradient>
 </defs>
 <g id="Слой_x0020_1">
  <metadata id="CorelCorpID_0Corel-Layer"/>
  <g id="_2824101401808">
   <path class="fil0" d="M-0 6470.08l0 -6470.08 23290.36 0 0 3445.98c-297.68,153.14 -501.26,463.39 -501.26,821.19 0,357.81 203.58,668.06 501.26,821.2l0 1381.71 -23290.36 0z"/>
   <path class="fil1" d="M24133.76 0l6916.7 0 0 6470.08 -6916.7 0 0 -1381.68c297.67,-153.17 501.29,-463.42 501.29,-821.23 0,-357.8 -203.62,-668.05 -501.29,-821.22l0 -3445.95z"/>
   <path class="fil2" d="M2244.9 2540.01c111.32,-33.38 250.46,-50.09 372.89,-50.09 389.57,0 473.07,139.18 473.07,656.74l0 1508.27 851.53 0 0 -1575.06c0,-211.49 -22.27,-389.57 -55.64,-539.86 139.1,-33.38 322.77,-50.09 428.54,-50.09 389.57,0 473.07,139.18 473.07,656.74l0 1508.27 851.52 0 0 -1575.06c0,-1024.05 -350.63,-1352.42 -1140.96,-1352.42 -322.77,0 -684.56,77.91 -985.07,183.67 -172.56,-128.02 -411.87,-183.67 -712.39,-183.67 -512.04,0 -1046.34,122.44 -1413.65,256.02l0 2671.46 857.09 0 0 -2114.92zm4652.79 2252.21c-139.15,307.01 -311.67,663.21 -467.52,931.28l940.59 0c139.14,-273.63 276.95,-597 406.27,-897.9 421.62,-981.02 801.44,-2033.28 1085.29,-3020.24l-851.53 0c-155.82,652.09 -378.46,1332.04 -606.65,1984.13 -178.08,-679.94 -395.13,-1387.68 -623.33,-1984.13l-862.68 0c333.96,886.79 701.27,1978.57 979.56,2986.86zm3382.27 -2285.63c100.18,-38.98 283.87,-66.79 434.13,-66.79 406.3,0 539.88,122.45 539.88,812.59 0,601.08 -128.03,779.19 -534.33,779.19 -250.44,0 -439.68,-89.06 -439.68,-217.06l0 -1307.93zm-857.09 3216.95l857.09 0 0 -1118.69c155.84,66.76 345.08,128 623.37,128 706.82,0 1207.75,-350.64 1207.75,-1502.73 0,-1163.22 -428.56,-1502.72 -1396.99,-1502.72 -445.27,0 -985.11,83.5 -1291.22,200.34l0 3795.8zm3317.14 -1068.62l857.08 0 0 -1870.07c0,-189.21 267.16,-289.39 573.27,-289.39 139.16,0 289.43,11.13 400.74,44.52l0 -795.9c-100.15,-11.13 -200.37,-16.68 -283.84,-16.68 -411.88,0 -595.53,133.58 -690.17,300.53l0 -222.61 -857.08 0 0 2849.6zm3066.65 -2849.6l-857.08 0 0 2849.6 857.08 0 0 -2849.6zm-428.55 -1235.59c-367.32,0 -484.19,55.66 -484.19,406.29 0,384.03 116.87,450.82 484.19,450.82 361.79,0 484.21,-66.79 484.21,-450.82 0,-350.63 -122.42,-406.29 -484.21,-406.29l0 0zm2009.23 1970.25c139.13,-33.39 267.13,-50.1 406.26,-50.1 417.43,0 500.93,139.19 500.93,656.74l0 1508.3 857.11 0 0 -1575.09c0,-1024.06 -389.61,-1352.43 -1174.35,-1352.43 -512.06,0 -1079.75,122.45 -1447.06,256l0 2671.52 857.11 0 0 -2114.94zm4352.33 0l0 -734.66 -890.51 0 0 -768.06 -857.12 345.05 0 423.01 -461.95 0 0 734.66 461.95 0 0 1152.09c0,851.51 350.64,1040.78 979.57,1040.78 306.1,0 645.61,-55.66 857.11,-144.72l-139.16 -656.74c-133.58,44.53 -278.27,77.92 -456.37,77.92 -300.56,0 -384.03,-116.9 -384.03,-406.29l0 -1063.04 890.51 0zm4753.03 1380.28c-150.26,33.39 -272.71,55.66 -411.87,55.66 -417.43,0 -506.45,-144.71 -506.45,-656.74l0 -1513.86 -845.98 0 0 1580.65c0,1018.5 378.48,1352.43 1168.74,1352.43 506.51,0 1079.78,-128 1441.54,-256l0 -2677.08 -845.98 0 0 2114.94zm1363.57 -2114.94l0 734.66 1241.14 0c-228.19,406.3 -868.25,1352.43 -1335.75,1975.81l0 139.13 2576.89 0 0 -734.66 -1257.82 0c356.18,-478.64 968.43,-1380.28 1324.61,-1975.81l0 -139.13 -2549.07 0z"/>
   <path class="fil3" d="M23712.09 3746.13c287.74,0 521.01,233.27 521.01,521.05 0,287.74 -233.27,521.01 -521.01,521.01 -287.78,0 -521.05,-233.27 -521.05,-521.01 0,-287.78 233.27,-521.05 521.05,-521.05z"/>
   <path class="fil4" d="M6572.11 9380.01l161.02 0 0 -541.59c83.66,121.27 213.31,230.02 414.04,230.02 261.39,0 516.53,-209.12 516.53,-562.52 0,-359.67 -257.22,-564.59 -516.53,-564.59 -198.65,0 -326.22,110.8 -414.04,240.45l0 -217.47 -161.02 0 0 1415.7zm545.78 -455.88c-200.73,0 -391.04,-167.29 -391.04,-418.21 0,-250.95 190.31,-420.32 391.04,-420.32 204.93,0 380.6,163.1 380.6,418.21 0,265.58 -171.48,420.32 -380.6,420.32zm842.72 121.3l161.01 0 0 -430.79c0,-326.19 192.38,-495.59 428.67,-495.59l12.55 0 0 -173.56c-204.93,-8.36 -361.75,121.3 -441.22,301.13l0 -282.31 -161.01 0 0 1081.12zm851.1 -1317.42l184 0 0 -177.75 -184 0 0 177.75zm10.43 1317.42l161.02 0 0 -1081.12 -161.02 0 0 1081.12zm535.35 0l161.01 0 0 -618.97c0,-202.85 138.01,-338.78 324.12,-338.78 190.3,0 299.05,125.46 299.05,326.23l0 631.52 161.01 0 0 -671.24c0,-257.22 -152.66,-432.86 -414.04,-432.86 -186.11,0 -299.02,94.09 -370.14,211.2l0 -188.22 -161.01 0 0 1081.12zm1649.91 18.82c77.35,0 138,-16.74 194.46,-45.99l0 -138.04c-56.46,27.2 -102.48,37.64 -156.82,37.64 -108.76,0 -181.95,-48.07 -181.95,-179.84l0 -631.52 342.96 0 0 -142.19 -342.96 0 0 -326.2 -161.02 0 0 326.2 -150.55 0 0 142.19 150.55 0 0 652.45c0,219.56 131.73,305.3 305.33,305.3zm464.23 -18.82l192.38 0 0 -219.56 -192.38 0 0 219.56zm1612.24 23.01c198.68,0 326.22,-110.83 414.04,-240.48l0 217.47 161.02 0 0 -1526.53 -161.02 0 0 652.45c-83.62,-121.3 -213.28,-230.02 -414.04,-230.02 -259.27,0 -516.49,209.08 -516.49,562.48 0,359.7 257.22,564.63 516.49,564.63zm29.28 -144.31c-204.92,0 -380.57,-163.1 -380.57,-418.21 0,-265.57 171.45,-420.32 380.57,-420.32 200.77,0 391.04,167.29 391.04,416.13 0,253.03 -190.27,422.4 -391.04,422.4zm1001.66 -353.4l857.34 0c2.11,-25.09 2.11,-41.8 2.11,-56.45 0,-317.84 -184.02,-572.95 -503.98,-572.95 -299.02,0 -518.6,250.91 -518.6,564.59 0,336.66 242.56,564.6 539.5,564.6 204.96,0 336.69,-81.55 445.41,-202.85l-100.36 -89.9c-87.83,92.02 -192.38,152.63 -340.86,152.63 -190.3,0 -357.58,-131.73 -380.56,-359.67zm0 -129.65c22.98,-209.09 165.17,-363.83 351.28,-363.83 213.31,0 326.23,167.29 345.04,363.83l-696.32 0zm1499.32 625.25c215.4,0 384.77,-119.19 384.77,-324.12 0,-198.65 -179.84,-263.49 -347.13,-313.67 -144.28,-43.92 -278.12,-83.63 -278.12,-186.11 0,-94.1 81.55,-161.02 209.12,-161.02 104.56,0 219.55,39.75 319.95,104.56l73.16 -121.3c-110.83,-73.16 -257.19,-119.18 -388.95,-119.18 -213.28,0 -368.02,123.38 -368.02,309.48 0,202.85 188.18,261.39 357.59,309.49 142.19,39.75 269.73,81.55 269.73,190.3 0,108.75 -94.09,175.64 -223.74,175.64 -127.54,0 -257.19,-50.18 -374.3,-138l-81.55 115.02c121.27,98.29 292.75,158.91 447.49,158.91zm687.98 -1338.32l183.99 0 0 -177.75 -183.99 0 0 177.75zm10.43 1317.42l161.02 0 0 -1081.12 -161.02 0 0 1081.12zm1014.2 338.77c171.48,0 315.79,-48.11 411.97,-144.31 87.82,-87.82 138,-215.36 138,-382.65l0 -892.93 -161.01 0 0 194.49c-87.83,-117.11 -219.56,-217.47 -422.4,-217.47 -257.23,0 -508.14,194.46 -508.14,510.22 0,315.76 248.83,510.22 508.14,510.22 198.65,0 330.38,-102.45 424.51,-227.91l0 127.54c0,253.03 -154.74,384.76 -393.15,384.76 -154.74,0 -292.75,-48.07 -416.12,-138l-73.2 125.46c144.28,100.39 311.57,150.58 491.4,150.58zm-2.08 -564.63c-200.73,0 -374.29,-150.55 -374.29,-368.02 0,-225.83 169.36,-368.03 374.29,-368.03 204.93,0 397.31,144.28 397.31,365.95 0,221.63 -192.38,370.1 -397.31,370.1zm911.72 225.86l161.02 0 0 -618.97c0,-202.85 138,-338.78 324.11,-338.78 190.3,0 299.05,125.46 299.05,326.23l0 631.52 161.02 0 0 -671.24c0,-257.22 -152.66,-432.86 -414.05,-432.86 -186.1,0 -299.02,94.09 -370.13,211.2l0 -188.22 -161.02 0 0 1081.12zm1269.31 0l192.38 0 0 -219.56 -192.38 0 0 219.56zm1480.51 23.01c190.3,0 313.68,-87.82 388.95,-184.03l0 161.02 158.94 0 0 -660.81c0,-138 -37.64,-242.56 -112.95,-317.83 -77.35,-77.39 -196.54,-119.19 -349.2,-119.19 -158.94,0 -273.93,37.64 -393.15,91.98l48.11 131.77c100.36,-46.03 200.76,-77.39 328.3,-77.39 202.85,0 319.95,100.36 319.95,292.78l0 33.44c-96.2,-27.17 -192.38,-45.99 -330.38,-45.99 -273.96,0 -462.15,121.27 -462.15,353.4 0,225.82 200.73,340.85 403.58,340.85zm31.36 -129.65c-146.35,0 -271.84,-79.47 -271.84,-215.39 0,-133.85 115.02,-221.67 315.76,-221.67 131.76,0 236.29,23.01 315.75,46.02l0 100.37c0,171.45 -161.01,290.67 -359.67,290.67zm1311.14 129.65c198.69,0 326.23,-110.83 414.05,-240.48l0 217.47 161.02 0 0 -1526.53 -161.02 0 0 652.45c-83.63,-121.3 -213.28,-230.02 -414.05,-230.02 -259.27,0 -516.49,209.08 -516.49,562.48 0,359.7 257.22,564.63 516.49,564.63zm29.29 -144.31c-204.93,0 -380.57,-163.1 -380.57,-418.21 0,-265.57 171.45,-420.32 380.57,-420.32 200.77,0 391.03,167.29 391.03,416.13 0,253.03 -190.26,422.4 -391.03,422.4zm1263.04 142.2c215.39,0 384.76,-119.19 384.76,-324.12 0,-198.65 -179.84,-263.49 -347.13,-313.67 -144.27,-43.92 -278.12,-83.63 -278.12,-186.11 0,-94.1 81.55,-161.02 209.12,-161.02 104.56,0 219.55,39.75 319.95,104.56l73.17 -121.3c-110.84,-73.16 -257.19,-119.18 -388.96,-119.18 -213.28,0 -368.02,123.38 -368.02,309.48 0,202.85 188.19,261.39 357.59,309.49 142.2,39.75 269.73,81.55 269.73,190.3 0,108.75 -94.09,175.64 -223.74,175.64 -127.54,0 -257.19,-50.18 -374.3,-138l-81.55 115.02c121.27,98.29 292.75,158.91 447.5,158.91zm664.96 -20.9l192.38 0 0 -219.56 -192.38 0 0 219.56z"/>
  </g>
 </g>
</svg>
