<?xml version="1.0" encoding="UTF-8"?>
<!DOCTYPE svg PUBLIC "-//W3C//DTD SVG 1.1//EN" "http://www.w3.org/Graphics/SVG/1.1/DTD/svg11.dtd">
<!-- Creator: CorelDRAW 2020 (64-Bit) -->
<svg xmlns="http://www.w3.org/2000/svg" xml:space="preserve" width="132.804mm" height="129.63mm" version="1.1" shape-rendering="geometricPrecision" text-rendering="geometricPrecision" image-rendering="optimizeQuality" fill-rule="evenodd" clip-rule="evenodd"
viewBox="0 0 3042.29 2969.57"
 xmlns:xlink="http://www.w3.org/1999/xlink"
 xmlns:xodm="http://www.corel.com/coreldraw/odm/2003">
 <g id="Слой_x0020_1">
  <metadata id="CorelCorpID_0Corel-Layer"/>
  <g id="_1567785472096">
   <path fill="black" d="M1981.73 2824.12l-212.11 0c-107.21,0 -99.23,-145.45 -12.12,-145.45l236.35 0c87.66,0 93.15,145.45 -12.12,145.45zm745.42 -733.3c-29.95,0 -54.54,-24.59 -54.54,-54.54l0 -575.73c0,-85.28 132.64,-58.31 182.95,4.92 31.07,39.05 41.28,84.42 41.28,152.65l0 272.72c0,111.8 -56.8,199.99 -169.69,199.99zm-2581.71 -199.99l0 -284.84c0,-61.93 13.47,-105.2 41.34,-140.47 52.35,-66.23 182.89,-88.4 182.89,-4.98l0 575.73c0,96.81 -224.23,76.39 -224.23,-145.45zm42.42 -606.03c-64.16,33.95 -79.09,44.29 -125.49,98.74 -27.79,32.61 -62.38,110.02 -62.38,167.92l0 381.8c0,150.25 114.3,263.81 231.28,295.97 162.51,44.67 289.91,-52.85 289.91,-211.13l0 -539.37c0,-66.11 -20.3,-110.63 -50.82,-149.17 -27.11,-34.23 -83.9,-65.08 -130.99,-69 0,-250.75 130.56,-530.26 289.43,-710.53 325.88,-369.79 871.36,-516.23 1363.37,-305.93 95.83,40.96 189.45,97.45 269.17,161.12 31.21,24.93 47.81,41.67 76.4,69.05 205.07,196.4 365.17,487.52 365.17,786.3 -47.11,3.92 -103.85,34.72 -130.99,69 -30.52,38.54 -50.82,83.06 -50.82,149.17l0 533.31c0,127.83 84.18,224.23 187.87,224.23 0,170.54 18.39,291.72 -146.54,398.89 -45.93,29.85 -88.01,37.63 -162.53,37.46 -68.68,-0.16 -137.38,-0.01 -206.06,-0.01 -8.81,-37.81 -46.96,-79 -74.33,-101.42 -75.34,-61.71 -236.06,-44.03 -349.89,-44.03 -79.39,0 -139.94,33.65 -186.15,92.63 -107.45,137.13 0.81,349.78 161.91,349.78l260.59 0c86.2,0 171.56,-75.42 187.87,-145.45 195.61,0 377.83,26.16 522.79,-119.6 152.86,-153.71 143.84,-274.44 143.84,-498.55 48.08,-11.2 94.52,-61.18 122.14,-96.04 26.27,-33.15 59.67,-106.95 59.67,-164.56l0 -393.92c0,-126.24 -90.5,-215.13 -187.87,-266.66 0,-485.7 -319.09,-941.7 -757.45,-1157.62 -214.18,-105.5 -385.69,-127.18 -636.43,-127.18 -320.03,0 -660.72,166.86 -886.32,392.41 -52.24,52.23 -101.57,111.33 -143.92,171.22 -144.61,204.54 -242.43,465.74 -242.43,721.17z"/>
   <path fill="black" d="M890.87 1654.47l0 -654.52c0,-70.34 75.1,-145.45 145.45,-145.45l969.65 0c71.25,0 145.45,74.19 145.45,145.45l0 654.52c0,48.5 -32.5,93.07 -61.23,114.52 -49.29,36.8 -64.33,30.95 -144.82,30.93 -117.24,-0.03 -234.48,-0.08 -351.72,-0.22 -95.39,-0.11 -120.24,50.97 -210.38,141.12l-177.27 174.23c0,-64.69 -0.21,-129.39 0.14,-194.08 0.38,-70.14 -13.47,-108.18 -75.04,-118.89 -76.6,-13.33 -108.11,16.59 -168.59,-25.35 -33.93,-23.53 -71.66,-67.39 -71.66,-122.27zm-151.51 -642.4l0 630.28c0,42.79 13.31,92.89 28.16,123.34 53.5,109.7 143.85,185.73 286.97,185.73l0 169.69c0,76.22 74.83,145.45 151.51,145.45 66.16,0 103.61,-39.86 137.87,-74.24l215.04 -215.24c31.62,-33.05 23.24,-26.19 83.38,-25.71l321.25 0.06c74.35,0.17 132.02,-9.99 179.42,-38.75 81.87,-49.68 159.95,-142.77 159.95,-270.33l0 -618.16c0,-181.17 -141.75,-321.2 -309.08,-321.2l-945.41 0c-165.65,0 -309.08,143.42 -309.08,309.08z"/>
   <path fill="black" d="M1412.06 1339.33c0,143.84 218.17,143.84 218.17,0 0,-143.84 -218.17,-143.84 -218.17,0z"/>
   <path fill="black" d="M1763.56 1339.33c0,133.73 218.17,156.93 218.17,-6.06 0,-93.1 -119.65,-137.01 -186.07,-70.92 -14.47,14.4 -32.11,51.12 -32.11,76.98z"/>
   <path fill="black" d="M1060.56 1333.28c0,162.99 218.17,139.79 218.17,6.06 0,-28.47 -17.36,-59.51 -32.88,-76.21 -62.83,-67.63 -185.3,-23.39 -185.3,70.15z"/>
  </g>
 </g>
</svg>
