<?xml version="1.0" encoding="UTF-8"?>
<!DOCTYPE svg PUBLIC "-//W3C//DTD SVG 1.1//EN" "http://www.w3.org/Graphics/SVG/1.1/DTD/svg11.dtd">
<!-- Creator: CorelDRAW 2020 (64-Bit) -->
<svg xmlns="http://www.w3.org/2000/svg" xml:space="preserve" width="121.527mm" height="118.856mm" version="1.1" shape-rendering="geometricPrecision" text-rendering="geometricPrecision" image-rendering="optimizeQuality" fill-rule="evenodd" clip-rule="evenodd"
viewBox="0 0 1335.25 1305.9"
 xmlns:xlink="http://www.w3.org/1999/xlink"
 xmlns:xodm="http://www.corel.com/coreldraw/odm/2003">
 <g id="Слой_x0020_1">
  <metadata id="CorelCorpID_0Corel-Layer"/>
  <g id="_1567788872112">
   <g>
    <path fill="black" d="M707.41 366.24c0,41.16 14.48,68.95 46.54,87.17 32.81,18.64 68.03,8.52 110.63,14.36 120.81,16.57 147.28,155.82 90.63,221.85 -2.92,3.4 -5,5.54 -8.34,9.1l-4.3 4.42c-1.56,1.51 -4.1,3.68 -6.11,5.51 -13,11.85 -27.19,21.01 -45.5,27.17 -49.73,16.72 -44.02,-9.84 -44.02,101.31l-46.51 0c0,-103.43 9.79,-93.02 -69.76,-93.01 -12.46,0 -35.06,1.34 -46.33,-0.18 -10.99,-1.48 -23.43,-11.56 -23.43,-23.07 0,-29.31 42.81,-23.25 72.67,-23.25 31.97,0 63.95,-0.04 95.92,0 38.54,0.05 53.73,-2.01 76.08,-19.84 51.04,-40.73 45.56,-122.18 -14.05,-155.55 -45.93,-25.72 -113.31,7.53 -172.96,-39.23 -93.85,-73.56 -59.53,-209.41 37.84,-242.15 49.73,-16.72 44.02,9.84 44.02,-101.31l46.51 0c0,103.43 -9.79,93.02 69.76,93.01 12.46,0 35.06,-1.34 46.33,0.18 10.99,1.48 23.43,11.56 23.43,23.07 0,29.31 -42.81,23.25 -72.67,23.25 -32.94,0 -65.89,0.07 -98.83,-0 -38.01,-0.09 -53.51,3.26 -74.77,21.15 -16.01,13.47 -32.78,37.61 -32.78,66.05zm46.51 -174.4c-38.62,9 -72.67,32.5 -95.08,58.98 -93.73,110.74 -32.28,279.71 111.16,305.72 35.71,6.47 76.98,-6.6 102.77,10.59 24.27,16.18 26.41,53.75 3.36,72.46 -32.14,26.09 -165.27,1.11 -210.65,13.17 -79.41,21.1 -59.48,137.85 12.86,137.85l75.57 0c0,110.23 -17.93,93.01 116.27,93.01 32.49,0 23.25,-47.96 23.25,-98.83 74.92,-17.45 139.52,-91.87 139.52,-168.59l0 -23.25c0,-83.89 -72.47,-159.4 -158.06,-173.3 -36.71,-5.96 -76.27,7.57 -102.02,-11.34 -22.18,-16.3 -24.34,-56.64 -0.47,-73 33.95,-23.27 165.31,0.3 209.47,-11.44 79.41,-21.1 59.48,-137.85 -12.86,-137.85l-75.57 0c0,-110.23 17.93,-93.01 -116.27,-93.01 -21.77,0 -23.54,15.34 -23.33,37.71 0.19,20.37 0.08,40.75 0.08,61.12z"/>
    <path fill="black" d="M312.1 488.32c0,19.11 -4.39,46.51 23.25,46.51 29.99,0 21.17,-32.12 29.21,-89.96 9.7,-69.7 30.82,-117.59 62.88,-175.47 36.81,-66.45 117.74,-137.59 185.96,-171.56 41.05,-20.44 87.14,-36.64 133.41,-43.9 52.89,-8.31 110.05,-7.77 163.72,1.62 98.89,17.31 202.18,78.15 263.99,151.66 30.51,36.29 49.28,66.23 70.66,109.56 12.47,25.28 22.26,57.66 30.21,88.97 16.37,64.49 17.05,138.72 2.37,202.39 -18.39,79.73 -56.05,161.2 -113.27,218.09 -58.78,58.43 -117.99,104.18 -200.23,128.22 -43.13,12.61 -73.73,10.26 -73.73,36.73 0,48.28 94.63,9.2 110.46,2.91 27.06,-10.76 49.27,-19.33 74.62,-32.93 67.55,-36.26 71.48,-52 106.82,-79.21 21.98,-16.91 13.59,-14.3 27.06,-28.17 19.76,-20.35 17.92,-19.83 35.22,-43.26 40.7,-55.11 90.55,-159.25 90.55,-232.1l0 -109.04c-2,-66.54 -12.02,-124.43 -54.3,-200 -34.71,-62.05 -37.48,-59.73 -72.74,-101.66 -17.53,-20.85 -38.26,-39.08 -59.66,-56.61 -11.75,-9.62 -20.84,-15.99 -33.63,-24.5 -71.09,-47.3 -168.13,-86.62 -262.18,-86.62 -94.51,0 -165.39,6.74 -248.06,48.42 -14.95,7.54 -26.82,13.34 -39.88,21.16 -12.17,7.29 -26.03,15.38 -37.24,23.8 -80.33,60.42 -121.41,108.67 -167.05,199.19 -22.76,45.14 -48.42,129.47 -48.42,195.74z"/>
    <path fill="black" d="M172.57 279.04l0 23.25c-19.11,0 -46.51,-4.39 -46.51,23.25 0,27.65 27.39,23.25 46.51,23.25 0,19.11 -4.39,46.51 23.25,46.51 27.65,0 23.25,-27.39 23.25,-46.51 19.11,0 46.51,4.39 46.51,-23.25 0,-27.65 -27.39,-23.25 -46.51,-23.25 0,-19.11 4.39,-46.51 -23.25,-46.51 -14.06,0 -23.25,9.19 -23.25,23.25z"/>
    <path fill="black" d="M1032.96 1139.42l0 23.25c-19.11,0 -46.51,-4.39 -46.51,23.25 0,27.65 27.39,23.25 46.51,23.25 0,19.11 -4.39,46.51 23.25,46.51 27.65,0 23.25,-27.39 23.25,-46.51 19.11,0 46.51,4.39 46.51,-23.25 0,-27.65 -27.39,-23.25 -46.51,-23.25 0,-19.11 4.39,-46.51 -23.25,-46.51 -14.06,0 -23.25,9.19 -23.25,23.25z"/>
   </g>
   <path fill="black" d="M168.25 1256.42l-118.76 0 0 -395.87 118.76 0c19.44,0 29.69,10.25 29.69,29.69l0 336.49c0,19.44 -10.25,29.69 -29.69,29.69zm303.5 -395.87c-20.86,0 -56.62,-3.54 -67.24,5.33 -12.63,10.54 -11.77,31.77 2.86,40.9 10.02,6.26 74.6,3.25 89.12,3.25 20.02,0 168.57,-2.4 180.79,2.3 14.81,5.71 20.36,26.13 8.6,38.63 -16.85,17.91 -63.66,2.35 -79.54,11.18 -18.84,10.47 -15.88,39.33 3.38,45.8 21.36,7.17 82.72,-13.49 82.72,25.8 0,39.29 -61.36,18.62 -82.72,25.8 -21.39,7.18 -21.39,40.19 0,47.37 21.36,7.18 82.72,-13.49 82.72,25.8 0,39.29 -61.36,18.62 -82.72,25.8 -21.47,7.21 -21.32,40.37 0.04,47.33 13.98,4.56 16.99,-1.46 27.45,10.49 11,12.57 7.1,40.09 -23.6,40.09l-189.69 0c-55.94,0 -86.95,-13.3 -134.23,-29.07 -13.66,-4.55 -29.01,-10.73 -42.26,-13.82l0 -305.15c35.09,-8.17 77.92,-32.97 101.78,-61.52 2.81,-3.36 2.66,-3.98 5.83,-7.36l19.38 -23.5c15.45,-22.02 28.56,-43.8 40.07,-70.44 11.4,-26.4 18.9,-54.46 25.92,-84.6 32.6,0 54.43,21.83 54.43,54.43 0,40.65 -5.96,90.23 -17.92,128.88 -1.83,5.93 -4.68,10.29 -5.18,16.27zm-229.27 -3.3c-7.61,-14.38 -9.41,-18.87 -23.55,-30.88 -8.04,-6.83 -26.53,-15.3 -40.78,-15.3l-156.7 0c-10.11,0 -21.44,11.33 -21.44,21.44l0 451.95c0,10.11 11.33,21.44 21.44,21.44l155.05 0c27.82,0 58.4,-22.88 62.68,-41.24 8.32,0.69 28.9,8.82 37.73,11.76 37.89,12.63 81.86,29.48 123.92,29.48l222.68 0c34.51,0 69.28,-34.77 69.28,-69.28 0,-24.07 -0.46,-13.74 -4.95,-32.99 26.15,-2.18 54.43,-36.83 54.43,-65.98 0,-15.11 0.03,-20.58 -6.08,-35.15 -3.38,-8.07 -7.74,-12.83 -12.06,-19.28 14.18,-21.17 18.14,-26.36 18.14,-54.43 0,-19.18 -9.84,-32.13 -18.14,-44.54 4.32,-6.45 8.68,-11.21 12.06,-19.28 12.5,-29.8 6.49,-60.18 -16.59,-83.41 -12.07,-12.15 -27.75,-21.19 -51.52,-21.06 -47.83,0.25 -95.71,0.04 -143.54,0.04 2.03,-8.71 5.1,-16.26 7.27,-25.71 11.7,-50.77 12.52,-77.78 12.52,-129.33 0,-48.68 -45.34,-94.02 -94.02,-94.02 -56.33,0 -47.83,-6.07 -66.95,69.96 -5.7,22.67 -14.73,46.44 -25.94,66.43 -13.53,24.14 -34.73,58.53 -56.51,75.44 -17.44,13.54 -29.6,27.22 -58.43,33.94z"/>
   <path fill="black" d="M98.97 1178.9c0,41.44 49.48,31.59 49.48,6.6 0,-41.44 -49.48,-31.59 -49.48,-6.6z"/>
  </g>
 </g>
</svg>
