<?xml version="1.0" encoding="UTF-8"?>
<!DOCTYPE svg PUBLIC "-//W3C//DTD SVG 1.1//EN" "http://www.w3.org/Graphics/SVG/1.1/DTD/svg11.dtd">
<!-- Creator: CorelDRAW 2020 (64-Bit) -->
<svg xmlns="http://www.w3.org/2000/svg" xml:space="preserve" width="123.847mm" height="144.46mm" version="1.1" shape-rendering="geometricPrecision" text-rendering="geometricPrecision" image-rendering="optimizeQuality" fill-rule="evenodd" clip-rule="evenodd"
viewBox="0 0 1244.73 1451.91"
 xmlns:xlink="http://www.w3.org/1999/xlink"
 xmlns:xodm="http://www.corel.com/coreldraw/odm/2003">
 <g id="Слой_x0020_1">
  <metadata id="CorelCorpID_0Corel-Layer"/>
  <g id="_1567715814800">
   <path fill="black" d="M66.45 303.53c11.24,-2.62 26.21,-7.59 37.23,-11 12.22,-3.78 25.7,-7.56 36.91,-11.32 57.52,-19.29 161.18,-54.49 217.1,-80.76l264.77 -132.38c4.4,0 55.53,29.84 62.53,33.92 40.59,23.58 121.82,61.09 165.36,81.44 68.61,32.06 254.84,103.03 328.11,120.1 0,271.61 27.6,477.59 -107.65,712.17 -6.5,11.28 -11.36,20.83 -18.83,32.23 -20.22,30.82 -39.97,61.57 -64.31,88.87 -9.35,10.48 -13.85,16.87 -24.11,26.95 -9.93,9.76 -14.15,17.19 -24.07,27 -18.23,18.03 -35.08,33.65 -53.89,51.07l-150.61 104.7c-25.25,13.55 -86.1,43.48 -112.54,43.48 -47.44,0 -164.47,-72.22 -204.25,-102.12l-57.42 -44.7c-30.53,-26.98 -61.89,-59.56 -89.41,-89.3 -31.5,-34.03 -72.74,-94.32 -96.25,-136.36 -137.11,-245.18 -108.67,-432.08 -108.67,-713.99zm551.07 -303.53l7.03 0c13.54,1.98 30.1,15.21 77.29,39.75 69.6,36.2 157.06,81.73 229.81,110.6 54.23,21.52 108.29,43.18 164.9,62.04 14.55,4.85 28.81,9.85 42.53,14.21 66.11,21 104.62,15.56 104.62,65.58 0,188.14 11.8,418.17 -44.32,585.44 -46.9,139.78 -113.82,254.93 -217.38,358.48 -59.19,59.19 -143.56,128.61 -219.6,166.2 -12.52,6.19 -19.72,10.81 -31.21,17.01 -10.74,5.8 -22.35,8.94 -34.01,14.22 -68.54,31.01 -105.94,19.02 -169.59,-8.24 -45.14,-19.34 -95.65,-52.84 -136.06,-79.53 -71.37,-47.15 -164.89,-139.24 -217.31,-213.88 -13.27,-18.89 -26.39,-36.69 -38.81,-57.64 -157.4,-265.69 -134.21,-472.87 -134.21,-782.06 0,-43.01 22,-40.51 62.76,-53.54 15.04,-4.81 28.49,-7.67 44,-12.74 109.96,-35.92 221.29,-77.41 324.41,-129.47l75.66 -37.81c73.82,-36.61 93.04,-56.18 109.48,-58.63z"/>
   <path fill="black" d="M307.57 734.72c0,-30.02 18.64,-36.88 42.55,-36.88 17.05,0 71.48,61.55 85.81,75.88 13.93,13.93 25.78,25.78 39.71,39.71 58.48,58.48 51.91,45.96 156.02,-58.15l248.31 -248.14c14.24,-10.28 57.35,-12.88 57.35,34.67 0,20.85 -55.74,68.5 -71.63,84.39 -101.06,101.06 -214.31,218.3 -314.76,315 -15.5,14.92 -39.23,13.47 -54.12,-1.44l-157.34 -157.54c-12.83,-12.83 -31.91,-23.64 -31.91,-47.52zm215.59 36.88c-68.1,-45.6 -121.89,-180.06 -227.04,-124.91 -25.75,13.5 -50.96,47.29 -50.96,76.69 0,36.06 0.23,53.11 30.48,82.99l187.46 187c39.63,31.77 96.46,27.47 133.13,-9.69l374.48 -374.42c42.32,-42.51 39.01,-114.21 -9.85,-150.55 -25.13,-18.69 -51.14,-25.63 -86.66,-16.89 -28.09,6.91 -48.88,29.03 -66.66,46.81l-226.94 226.94c-14.34,14.34 -43.2,46.49 -57.44,56.03z"/>
   <path fill="black" d="M123.18 371.61l0 116.31c0,30.66 39.19,43.16 57.45,17.73 9.49,-13.22 4.96,-92.08 4.96,-111.34 25.11,-12.05 150.61,-45.72 163.56,-66.29 10.52,-16.72 6.31,-47.18 -30.23,-47.18 -6.79,0 -43.31,14.63 -52.69,18.23 -17.81,6.83 -124.62,42.08 -131.08,47.63 -5.49,4.72 -11.97,15.43 -11.97,24.91z"/>
   <path fill="black" d="M755.78 1208.45c0,12.89 11.97,28.37 34.04,28.37 12.92,0 35.99,-21.72 47.59,-31.84 6.48,-5.65 9.08,-6.53 15.58,-12.79 15.57,-14.99 45.3,-40.35 56.39,-54.24 16.49,-20.67 32.97,-36.34 49.43,-58.37l34.54 -47.73c23.79,-35.09 -21.52,-80.15 -54.39,-31.69 -8.7,12.83 -14.47,21.12 -23.51,33.23 -23.76,31.84 -33.67,38.75 -51.04,59.59 -15.84,19 -52.12,52.35 -71.39,67.61 -17.97,14.23 -37.24,27.02 -37.24,47.86z"/>
   <path fill="black" d="M710.39 1287.88c42.85,0 47.76,-62.41 0,-62.41 -16.35,0 -29.73,18.07 -30.36,31.54 -0.75,16.01 13.28,30.86 30.36,30.86z"/>
   <path fill="black" d="M378.49 275.16c0,39.53 62.41,44.08 62.41,-2.84 0,-36.27 -62.41,-38.54 -62.41,2.84z"/>
  </g>
 </g>
</svg>
